<svg xmlns="http://www.w3.org/2000/svg" width="47.673" height="45.052" viewBox="0 0 47.673 45.052">
  <g id="Group_2" data-name="Group 2" transform="translate(-573 -163.698)">
    <path id="Path_11" data-name="Path 11" d="M14.25,0,19,8l-4.75,8H4.75L0,8,4.75,0Z" transform="translate(591 172)" fill="none"/>
    <path id="Path_11_-_Outline" data-name="Path 11 - Outline" d="M5.6,1.5,1.744,8,5.6,14.5H13.4L17.256,8,13.4,1.5H5.6M4.75,0h9.5L19,8l-4.75,8H4.75L0,8Z" transform="translate(591 172)" fill="#460b5e"/>
    <path id="Path_12" data-name="Path 12" d="M7.349,14.372l-8-14,1.3-.744,8,14Z" transform="translate(596.5 173)" fill="#460b5e"/>
    <path id="Path_13" data-name="Path 13" d="M7.349,14.372l-8-14,1.3-.744,8,14Z" transform="translate(604.562 173.036) rotate(60)" fill="#460b5e"/>
    <path id="Path_14" data-name="Path 14" d="M7.349,14.372l-8-14,1.3-.744,8,14Z" transform="translate(608.562 180.036) rotate(120)" fill="#460b5e"/>
    <circle id="Ellipse_5" data-name="Ellipse 5" cx="2.5" cy="2.5" r="2.5" transform="translate(594 170)" fill="#f3d6ff"/>
    <path id="Ellipse_5_-_Outline" data-name="Ellipse 5 - Outline" d="M2.5,1.5a1,1,0,1,0,1,1,1,1,0,0,0-1-1M2.5,0A2.5,2.5,0,1,1,0,2.5,2.5,2.5,0,0,1,2.5,0Z" transform="translate(594 170)" fill="#460b5e"/>
    <circle id="Ellipse_6" data-name="Ellipse 6" cx="2.5" cy="2.5" r="2.5" transform="translate(602 170)" fill="#f3d6ff"/>
    <path id="Ellipse_6_-_Outline" data-name="Ellipse 6 - Outline" d="M2.5,1.5a1,1,0,1,0,1,1,1,1,0,0,0-1-1M2.5,0A2.5,2.5,0,1,1,0,2.5,2.5,2.5,0,0,1,2.5,0Z" transform="translate(602 170)" fill="#460b5e"/>
    <circle id="Ellipse_7" data-name="Ellipse 7" cx="2.5" cy="2.5" r="2.5" transform="translate(590 177)" fill="#f3d6ff"/>
    <path id="Ellipse_7_-_Outline" data-name="Ellipse 7 - Outline" d="M2.5,1.5a1,1,0,1,0,1,1,1,1,0,0,0-1-1M2.5,0A2.5,2.5,0,1,1,0,2.5,2.5,2.5,0,0,1,2.5,0Z" transform="translate(590 177)" fill="#460b5e"/>
    <circle id="Ellipse_8" data-name="Ellipse 8" cx="2.5" cy="2.5" r="2.5" transform="translate(594 184)" fill="#f3d6ff"/>
    <path id="Ellipse_8_-_Outline" data-name="Ellipse 8 - Outline" d="M2.5,1.5a1,1,0,1,0,1,1,1,1,0,0,0-1-1M2.5,0A2.5,2.5,0,1,1,0,2.5,2.5,2.5,0,0,1,2.5,0Z" transform="translate(594 184)" fill="#460b5e"/>
    <circle id="Ellipse_9" data-name="Ellipse 9" cx="1.5" cy="1.5" r="1.5" transform="translate(603 185)" fill="#f3d6ff"/>
    <path id="Ellipse_9_-_Outline" data-name="Ellipse 9 - Outline" d="M2.5,1.5a1,1,0,1,0,1,1,1,1,0,0,0-1-1M2.5,0A2.5,2.5,0,1,1,0,2.5,2.5,2.5,0,0,1,2.5,0Z" transform="translate(602 184)" fill="#460b5e"/>
    <circle id="Ellipse_10" data-name="Ellipse 10" cx="2.5" cy="2.5" r="2.5" transform="translate(606 177)" fill="#f3d6ff"/>
    <path id="Ellipse_10_-_Outline" data-name="Ellipse 10 - Outline" d="M2.5,1.5a1,1,0,1,0,1,1,1,1,0,0,0-1-1M2.5,0A2.5,2.5,0,1,1,0,2.5,2.5,2.5,0,0,1,2.5,0Z" transform="translate(606 177)" fill="#460b5e"/>
    <circle id="Ellipse_11" data-name="Ellipse 11" cx="2.5" cy="2.5" r="2.5" transform="translate(598 177)" fill="#f3d6ff"/>
    <path id="Ellipse_11_-_Outline" data-name="Ellipse 11 - Outline" d="M2.5,1.5a1,1,0,1,0,1,1,1,1,0,0,0-1-1M2.5,0A2.5,2.5,0,1,1,0,2.5,2.5,2.5,0,0,1,2.5,0Z" transform="translate(598 177)" fill="#460b5e"/>
    <path id="Path_15" data-name="Path 15" d="M477.215,175.083h-2.382v-1.5h1.785l3-2.833h11.8v1.5h-11.2Z" transform="translate(102.417 11.875)" fill="#460b5e"/>
    <path id="Path_16" data-name="Path 16" d="M491.917,164.833h-12.3l-3.25-3.167h-1.445v-1.5h2.055l3.25,3.167h11.7Z" transform="translate(102.417 11.875)" fill="#460b5e"/>
    <path id="Path_17" data-name="Path 17" d="M488.833,168.667H475.167v-1.5h13.667Z" transform="translate(102.167 11.875)" fill="#460b5e"/>
    <circle id="Ellipse_12" data-name="Ellipse 12" cx="2.5" cy="2.5" r="2.5" transform="translate(573 184)" fill="#f3d6ff"/>
    <path id="Ellipse_12_-_Outline" data-name="Ellipse 12 - Outline" d="M2.5,1.5a1,1,0,1,0,1,1,1,1,0,0,0-1-1M2.5,0A2.5,2.5,0,1,1,0,2.5,2.5,2.5,0,0,1,2.5,0Z" transform="translate(573 184)" fill="#460b5e"/>
    <circle id="Ellipse_13" data-name="Ellipse 13" cx="2.5" cy="2.5" r="2.5" transform="translate(573 177)" fill="#f3d6ff"/>
    <path id="Ellipse_13_-_Outline" data-name="Ellipse 13 - Outline" d="M2.5,1.5a1,1,0,1,0,1,1,1,1,0,0,0-1-1M2.5,0A2.5,2.5,0,1,1,0,2.5,2.5,2.5,0,0,1,2.5,0Z" transform="translate(573 177)" fill="#460b5e"/>
    <circle id="Ellipse_14" data-name="Ellipse 14" cx="2.5" cy="2.5" r="2.5" transform="translate(573 171)" fill="#f3d6ff"/>
    <path id="Ellipse_14_-_Outline" data-name="Ellipse 14 - Outline" d="M2.5,1.5a1,1,0,1,0,1,1,1,1,0,0,0-1-1M2.5,0A2.5,2.5,0,1,1,0,2.5,2.5,2.5,0,0,1,2.5,0Z" transform="translate(573 171)" fill="#460b5e"/>
    <path id="Path_18" data-name="Path 18" d="M499.583,198.75H486.268l.161-.884a18.6,18.6,0,0,0,.174-3.454,25.1,25.1,0,0,0-1.636-8.143,80.359,80.359,0,0,0-5.112-10.887l1.29-.765a82.063,82.063,0,0,1,5.221,11.113,26.609,26.609,0,0,1,1.737,8.685,22.926,22.926,0,0,1-.086,2.834h10.066v-5.833H508.75v-10h5.91L511.1,169.488l-.008-.063a19.433,19.433,0,0,0-2.127-6.154,15.437,15.437,0,0,0-22.2-5.411,14.147,14.147,0,0,0-3.776,4.005l-1.311-.73a15.83,15.83,0,0,1,9.546-6.973,17.588,17.588,0,0,1,7.759-.064,16.1,16.1,0,0,1,7.215,3.409A17.418,17.418,0,0,1,510.3,162.6a20.78,20.78,0,0,1,2.264,6.575l4.1,13.741H510.25v10H499.583Z" transform="translate(104 10)" fill="#460b5e"/>
    <path id="Path_19" data-name="Path 19" d="M507.765,186.658c-.611,0-1.3-.019-1.994-.077a2.946,2.946,0,0,1-2.473-2.128,6.505,6.505,0,0,1-.381-1.745l1.5-.085c0,.024.178,2.354,1.48,2.463a27,27,0,0,0,3.876,0l.124,1.495C509.84,186.585,508.95,186.658,507.765,186.658Z" transform="translate(104 10)" fill="#460b5e"/>
  </g>
</svg>
