<svg xmlns="http://www.w3.org/2000/svg" width="45.5" height="45.5" viewBox="0 0 45.5 45.5">
  <path id="python-svgrepo-com" d="M17.589,6.714H20.7m-7.768,4.661V3.607A3.107,3.107,0,0,1,16.036.5H28.464a3.107,3.107,0,0,1,3.107,3.107V19.143a3.107,3.107,0,0,1-3.107,3.107H16.036a3.107,3.107,0,0,0-3.107,3.107V40.893A3.107,3.107,0,0,0,16.036,44H28.464a3.107,3.107,0,0,0,3.107-3.107V33.125M23.8,12.929H3.607A3.107,3.107,0,0,0,.5,16.036V31.571a3.107,3.107,0,0,0,3.107,3.107h9.321M20.7,31.571h20.2A3.107,3.107,0,0,0,44,28.464V12.929a3.107,3.107,0,0,0-3.107-3.107H31.571M23.8,37.786h3.107" transform="translate(0.5 0.5)" fill="none" stroke="#460b5e" stroke-linecap="round" stroke-width="2"/>
</svg>
