<svg xmlns="http://www.w3.org/2000/svg" width="35.053" height="42.043" viewBox="0 0 35.053 42.043">
  <g id="android-logo-svgrepo-com" transform="translate(-17.134 0)">
    <path id="Path_154" data-name="Path 154" d="M45.822,15.5H66.737a1.53,1.53,0,0,0,1.522-1.687A11.991,11.991,0,0,0,63.33,5.289l1.876-2.936A1.53,1.53,0,0,0,62.628.706L60.634,3.827a12.158,12.158,0,0,0-8.71,0L49.931.706a1.53,1.53,0,0,0-2.578,1.647l1.876,2.936A11.992,11.992,0,0,0,44.3,13.813,1.53,1.53,0,0,0,45.822,15.5Zm6.144-8.324a1.534,1.534,0,0,0,.209-.111,9.046,9.046,0,0,1,8.212,0,1.543,1.543,0,0,0,.2.109,8.943,8.943,0,0,1,4.285,5.265h-17.2A8.945,8.945,0,0,1,51.966,7.175Z" transform="translate(-21.619 0)" fill="#6d1d8e"/>
    <path id="Path_155" data-name="Path 155" d="M66.737,88.94a1.53,1.53,0,0,0-1.53,1.53v10.663a.857.857,0,0,1-.846.846H48.2a.857.857,0,0,1-.846-.846V90.47a1.53,1.53,0,0,0-3.059,0v10.663a3.91,3.91,0,0,0,3.905,3.905H64.362a3.91,3.91,0,0,0,3.905-3.905V90.47A1.53,1.53,0,0,0,66.737,88.94Z" transform="translate(-21.62 -70.8)" fill="#6d1d8e"/>
    <path id="Path_156" data-name="Path 156" d="M20.833,76.27a1.53,1.53,0,0,0,0-3.059,3.7,3.7,0,0,0-3.7,3.7v8.454a3.7,3.7,0,0,0,3.7,3.7,1.53,1.53,0,0,0,0-3.059.64.64,0,0,1-.639-.639V76.91A.64.64,0,0,1,20.833,76.27Z" transform="translate(0 -58.279)" fill="#6d1d8e"/>
    <path id="Path_157" data-name="Path 157" d="M164.892,73.211a1.53,1.53,0,0,0,0,3.059.64.64,0,0,1,.639.639v8.454a.64.64,0,0,1-.639.639,1.53,1.53,0,0,0,0,3.059,3.7,3.7,0,0,0,3.7-3.7V76.91A3.7,3.7,0,0,0,164.892,73.211Z" transform="translate(-116.403 -58.279)" fill="#6d1d8e"/>
    <path id="Path_158" data-name="Path 158" d="M71.408,180.5a1.53,1.53,0,0,0-1.53,1.53.639.639,0,0,1-1.279,0,1.53,1.53,0,1,0-3.059,0,3.7,3.7,0,0,0,7.4,0A1.529,1.529,0,0,0,71.408,180.5Z" transform="translate(-38.533 -143.683)" fill="#6d1d8e"/>
    <path id="Path_159" data-name="Path 159" d="M110.186,180.5a1.53,1.53,0,0,0-1.53,1.53.64.64,0,0,1-1.279,0,1.53,1.53,0,1,0-3.059,0,3.7,3.7,0,0,0,7.4,0A1.53,1.53,0,0,0,110.186,180.5Z" transform="translate(-69.402 -143.683)" fill="#6d1d8e"/>
  </g>
</svg>
