<svg xmlns="http://www.w3.org/2000/svg" width="46.145" height="46.039" viewBox="0 0 46.145 46.039">
  <g id="_02" data-name="02" transform="translate(0 -0.041)">
    <path id="Path_142" data-name="Path 142" d="M170.957,89.5h-1.8c-.122-.052-.241-.11-.365-.154a4.009,4.009,0,0,1-2.645-2.891c-.05-.187-.1-.373-.144-.56v-.721a4.867,4.867,0,0,1,.87-2.085.576.576,0,0,0,.1-.64c-.259-.839-.5-1.686-.689-2.544-.144-.666-.19-1.352-.279-2.031V76.52l.132-1.2a27.191,27.191,0,0,1,2.371-8.342.959.959,0,0,0,.006-.885,26.907,26.907,0,0,1-2.245-7.361c-.1-.679-.18-1.359-.265-2.039v-1.8c.095-.651.163-1.307.288-1.951a10.828,10.828,0,0,1,7.076-8.624,15.285,15.285,0,0,1,7.81-.631,28.787,28.787,0,0,1,7.552,2.281.969.969,0,0,0,.706.008,28.053,28.053,0,0,1,8.266-2.366,15.288,15.288,0,0,1,7.263.785.65.65,0,0,0,.721-.1A4,4,0,0,1,211.97,46.5c.058.215.116.43.174.645v.721a4.842,4.842,0,0,1-.87,2.083.578.578,0,0,0-.1.64c.258.839.5,1.685.689,2.543.144.667.191,1.352.281,2.034v1.262c-.044.429-.09.858-.134,1.287a27.2,27.2,0,0,1-2.369,8.343.962.962,0,0,0-.007.885,27.209,27.209,0,0,1,2.253,7.406c.1.664.173,1.331.259,2v1.8c-.09.631-.18,1.27-.28,1.9a10.97,10.97,0,0,1-8.472,9.091c-.565.134-1.136.242-1.705.361h-3.964a1.1,1.1,0,0,0-.248-.09,26.723,26.723,0,0,1-7.983-2.332.96.96,0,0,0-.884.011,27.874,27.874,0,0,1-5.992,1.994c-.759.158-1.524.278-2.286.416h-3.785a.511.511,0,0,0-.117-.063c-1.153-.292-2.305-.584-3.46-.868a.439.439,0,0,0-.285.021C172.1,88.884,171.531,89.193,170.957,89.5ZM189.095,49.11a.8.8,0,0,0-.119.036c-.081.04-.16.082-.239.125a42.016,42.016,0,0,0-16.907,16.889.673.673,0,0,0,.006.74,42.3,42.3,0,0,0,16.876,16.864.6.6,0,0,0,.7,0c1.784-1.16,3.656-2.2,5.35-3.483a41.332,41.332,0,0,0,11.494-13.288.837.837,0,0,0-.009-.98c-1.118-1.705-2.12-3.5-3.347-5.118A41.409,41.409,0,0,0,189.51,49.313C189.367,49.236,189.217,49.17,189.095,49.11ZM170.284,63.484a46.016,46.016,0,0,1,15.766-15.766c-.5-.18-.9-.332-1.293-.461a17.652,17.652,0,0,0-8.677-.936,8.237,8.237,0,0,0-6.977,6.2,13.752,13.752,0,0,0-.2,5.98,23.078,23.078,0,0,0,1.386,4.984Zm37.576,6.064a46.021,46.021,0,0,1-15.772,15.772c.6.207,1.074.387,1.559.541a17.471,17.471,0,0,0,8.375.859,8.259,8.259,0,0,0,7.086-6.467,13.984,13.984,0,0,0,.129-5.763,23.162,23.162,0,0,0-1.377-4.942Zm-21.9,15.83.009-.125A44.563,44.563,0,0,1,177.2,78.4a45.2,45.2,0,0,1-6.9-8.827c-.08.162-.119.227-.144.3a22.332,22.332,0,0,0-1.442,6.288,12.437,12.437,0,0,0,.6,5.015c.084.24.169.354.467.342a4.018,4.018,0,0,1,4.3,4.291c-.01.252.036.4.29.457.8.18,1.6.427,2.406.541a16.426,16.426,0,0,0,6.457-.575c.917-.247,1.815-.566,2.723-.85Zm21.9-21.917c.1-.24.169-.388.224-.541a22.261,22.261,0,0,0,1.343-5.992,12.6,12.6,0,0,0-.587-5.061.425.425,0,0,0-.509-.345,4.043,4.043,0,0,1-4.266-3.7c-.032-.325.037-.758-.143-.948-.218-.23-.652-.259-.991-.361-.157-.048-.321-.074-.482-.108a15.353,15.353,0,0,0-6.822.239c-1.158.277-2.292.659-3.436.991v.132A46.17,46.17,0,0,1,207.859,63.461Zm.187-14.589a1.369,1.369,0,0,0,1.41-1.331,1.373,1.373,0,1,0-1.41,1.331Zm-36.62,36.647a1.352,1.352,0,0,0-1.372-1.358,1.366,1.366,0,0,0-1.365,1.375,1.382,1.382,0,0,0,1.382,1.365,1.367,1.367,0,0,0,1.355-1.383Z" transform="translate(-166 -43.42)" fill="#6d1d8e"/>
    <path id="Path_143" data-name="Path 143" d="M332.846,211.141h-1.312v-2.649h1.286V205.67h-1.288v-2.679h1.29v-2.822H331.53V197.5h1.3V194.91h13.672v2.567h1.328v2.663h-1.287v2.822h1.288v2.681h-1.29v2.822h1.292v2.664h-1.3v2.595H332.846Zm10.984-13.576h-8.273v2.687h8.273Zm-8.283,5.4v2.688h8.279v-2.688Zm0,8.1h8.273v-2.69h-8.282Z" transform="translate(-316.612 -181.22)" fill="#6d1d8e"/>
  </g>
</svg>
