<svg xmlns="http://www.w3.org/2000/svg" width="43.019" height="43.019" viewBox="0 0 43.019 43.019">
  <g id="_04" data-name="04" transform="translate(0 0)">
    <path id="Path_144" data-name="Path 144" d="M166,84.29v-41a1.817,1.817,0,0,1,1.008-1.008h41a1.817,1.817,0,0,1,1.008,1.008v41A1.822,1.822,0,0,1,208.01,85.3h-41A1.822,1.822,0,0,1,166,84.29Zm40.5-29.4H168.537V82.77H206.5Zm-37.973-2.538H206.5V44.81H168.525Z" transform="translate(-166 -42.28)" fill="#6d1d8e"/>
    <path id="Path_145" data-name="Path 145" d="M232.523,265.037c-.336.382-.626.756-.958,1.092-.857.865-1.735,1.71-2.595,2.573a.712.712,0,0,0-.224.42c-.018,1.008-.01,2.017-.01,3.09h18.648a2.8,2.8,0,0,1,.745.084,1.214,1.214,0,0,1,.01,2.314,2.594,2.594,0,0,1-.7.084q-9.806.007-19.613,0c-1.107,0-1.567-.452-1.567-1.544V256.1a2.489,2.489,0,0,1,.067-.622,1.21,1.21,0,0,1,2.343.005,2.489,2.489,0,0,1,.066.622q.006,4.388,0,8.778v.541c.181-.161.295-.252.4-.357.828-.814,1.653-1.633,2.485-2.444a1.26,1.26,0,0,1,2.009.018q1.832,1.822,3.654,3.652a3.438,3.438,0,0,1,.252.3l7.017-7.022c-.524,0-1.131.006-1.737,0a1.282,1.282,0,0,1-1.26-.8,1.206,1.206,0,0,1,1.075-1.66c1.721-.044,3.445-.033,5.166-.005a1.187,1.187,0,0,1,1.181,1.234q.029,2.521,0,5.041a1.237,1.237,0,0,1-1.238,1.228,1.253,1.253,0,0,1-1.229-1.24c-.023-.639-.005-1.279-.005-2.03-.193.183-.312.291-.425.4l-7.338,7.333a1.3,1.3,0,0,1-2.157.005q-1.813-1.81-3.625-3.621C232.853,265.348,232.741,265.247,232.523,265.037Z" transform="translate(-221.192 -236.734)" fill="#6d1d8e"/>
    <path id="Path_146" data-name="Path 146" d="M531.064,286.969c-.8,0-1.6.005-2.39,0a1.275,1.275,0,0,1-1.385-1.253,1.262,1.262,0,0,1,1.37-1.226q2.431-.011,4.863,0a1.242,1.242,0,1,1,.016,2.474C532.713,286.977,531.885,286.969,531.064,286.969Z" transform="translate(-496.933 -264.135)" fill="#6d1d8e"/>
    <path id="Path_147" data-name="Path 147" d="M531.074,346.978c-.8,0-1.6.005-2.39,0a1.249,1.249,0,1,1,.008-2.479q2.431-.008,4.863,0a1.26,1.26,0,0,1,1.249.812,1.12,1.12,0,0,1-.344,1.323,1.959,1.959,0,0,1-.956.329C532.7,347.009,531.887,346.978,531.074,346.978Z" transform="translate(-496.934 -319.103)" fill="#6d1d8e"/>
    <path id="Path_148" data-name="Path 148" d="M531.1,406.946c-.811,0-1.622.006-2.432,0a1.277,1.277,0,0,1-1.38-1.26,1.264,1.264,0,0,1,1.375-1.221q2.432-.01,4.862,0a1.244,1.244,0,1,1,.005,2.477C532.724,406.953,531.909,406.946,531.1,406.946Z" transform="translate(-496.931 -374.029)" fill="#6d1d8e"/>
    <path id="Path_149" data-name="Path 149" d="M531.112,464.466c.8,0,1.6-.005,2.39,0a1.275,1.275,0,0,1,1.385,1.253,1.262,1.262,0,0,1-1.37,1.226q-2.431.012-4.862,0a1.244,1.244,0,1,1-.015-2.478C529.463,464.458,530.29,464.466,531.112,464.466Z" transform="translate(-496.934 -428.991)" fill="#6d1d8e"/>
    <path id="Path_150" data-name="Path 150" d="M531.049,104.974c-.8,0-1.6.006-2.39,0a1.247,1.247,0,1,1,.013-2.479q2.411-.008,4.821,0a1.247,1.247,0,1,1-.012,2.475C532.67,104.978,531.86,104.974,531.049,104.974Z" transform="translate(-496.932 -97.431)" fill="#6d1d8e"/>
    <path id="Path_151" data-name="Path 151" d="M226.249,103.769a1.236,1.236,0,1,1,1.168,1.293A1.259,1.259,0,0,1,226.249,103.769Z" transform="translate(-221.185 -97.524)" fill="#6d1d8e"/>
    <path id="Path_152" data-name="Path 152" d="M287.25,103.8a1.237,1.237,0,1,1,1.239,1.228A1.266,1.266,0,0,1,287.25,103.8Z" transform="translate(-277.062 -97.495)" fill="#6d1d8e"/>
    <path id="Path_153" data-name="Path 153" d="M348.459,105.059a1.236,1.236,0,1,1,1.293-1.169A1.273,1.273,0,0,1,348.459,105.059Z" transform="translate(-332.05 -97.52)" fill="#6d1d8e"/>
  </g>
</svg>
