<svg xmlns="http://www.w3.org/2000/svg" width="46.705" height="41.052" viewBox="0 0 46.705 41.052">
  <g id="_01" data-name="01" transform="translate(0 0)">
    <path id="Path_135" data-name="Path 135" d="M255.75,165.3v-3.56a3.434,3.434,0,0,0,.2-.352q1.646-3.951,3.285-7.908a2.489,2.489,0,0,0,.183-.921q.015-13.851.009-27.7v-.6h39.39v.62q0,13.854.007,27.7a2.377,2.377,0,0,0,.174.877c1.1,2.683,2.222,5.357,3.335,8.035a1.141,1.141,0,0,1,.122.387c.01,1.122,0,2.244,0,3.43H256.3C256.115,165.311,255.932,165.306,255.75,165.3ZM295.2,151.7V128.381c0-.585,0-.587-.6-.587H263.032v23.321c0,.584,0,.585.6.585H295.2Zm-10.624,10h13.9a2.268,2.268,0,0,0-.067-.25c-.816-1.963-1.64-3.923-2.439-5.89-.122-.3-.335-.3-.583-.3q-16.269,0-32.538-.006a.587.587,0,0,0-.645.418c-.761,1.869-1.546,3.73-2.317,5.6-.055.132-.093.27-.146.43h13.918v-1.656H284.58Z" transform="translate(-255.75 -124.26)" fill="#6d1d8e"/>
    <path id="Path_136" data-name="Path 136" d="M461.375,198.33v3.5H449.23v-3.5Z" transform="translate(-425.635 -189.297)" fill="#6d1d8e"/>
    <path id="Path_137" data-name="Path 137" d="M449.35,281.4h12.116v3.509H449.35Z" transform="translate(-425.74 -262.237)" fill="#6d1d8e"/>
    <path id="Path_138" data-name="Path 138" d="M348.2,175.62l2.729,2.338-5.823,6.791-4.948-4.643,2.459-2.621,2.207,2.073Z" transform="translate(-329.866 -169.357)" fill="#6d1d8e"/>
    <path id="Path_139" data-name="Path 139" d="M345.108,268.59l-4.948-4.645,2.459-2.619,2.206,2.066,3.378-3.932,2.728,2.337Z" transform="translate(-329.866 -242.972)" fill="#6d1d8e"/>
  </g>
</svg>
